<svg xmlns="http://www.w3.org/2000/svg" xmlns:xlink="http://www.w3.org/1999/xlink" width="500" zoomAndPan="magnify" viewBox="0 0 375 374.999991" height="500" preserveAspectRatio="xMidYMid meet" version="1.0"><defs><clipPath id="bb354e5e6e"><path d="M 26 4 L 193 4 L 193 284 L 26 284 Z M 26 4 " clip-rule="nonzero"/></clipPath><clipPath id="caef497b7d"><path d="M -51.613281 235.828125 L 109.433594 -44.011719 L 192.894531 4.019531 L 31.847656 283.859375 Z M -51.613281 235.828125 " clip-rule="nonzero"/></clipPath><clipPath id="8d0019aee2"><path d="M -51.613281 235.828125 L 109.433594 -44.011719 L 426.585938 138.507812 L 265.539062 418.347656 Z M -51.613281 235.828125 " clip-rule="nonzero"/></clipPath><clipPath id="eadbdcef62"><path d="M -51.613281 235.828125 L 109.160156 -43.535156 L 426.671875 139.191406 L 265.898438 418.558594 Z M -51.613281 235.828125 " clip-rule="nonzero"/></clipPath><clipPath id="ae265b94c2"><path d="M -51.613281 235.828125 L 109.15625 -43.527344 L 426.617188 139.171875 L 265.851562 418.527344 Z M -51.613281 235.828125 " clip-rule="nonzero"/></clipPath><clipPath id="daa93d6bd4"><path d="M 114 51 L 349 51 L 349 371 L 114 371 Z M 114 51 " clip-rule="nonzero"/></clipPath><clipPath id="5974f6ad67"><path d="M 114.996094 331.714844 L 276.042969 51.875 L 427.253906 138.898438 L 266.207031 418.738281 Z M 114.996094 331.714844 " clip-rule="nonzero"/></clipPath><clipPath id="194eaae5d9"><path d="M -51.617188 235.832031 L 109.429688 -44.011719 L 426.582031 138.507812 L 265.535156 418.351562 Z M -51.617188 235.832031 " clip-rule="nonzero"/></clipPath><clipPath id="4aa8214bdf"><path d="M -51.617188 235.832031 L 109.15625 -43.535156 L 426.667969 139.195312 L 265.898438 418.558594 Z M -51.617188 235.832031 " clip-rule="nonzero"/></clipPath><clipPath id="e96fef2f98"><path d="M -51.617188 235.832031 L 109.152344 -43.527344 L 426.613281 139.171875 L 265.847656 418.53125 Z M -51.617188 235.832031 " clip-rule="nonzero"/></clipPath><clipPath id="3c3cb673e4"><path d="M 80 4 L 349 4 L 349 189 L 80 189 Z M 80 4 " clip-rule="nonzero"/></clipPath><clipPath id="5edc37fd16"><path d="M 80.882812 5.589844 L 109.136719 -43.503906 L 426.289062 139.015625 L 398.035156 188.109375 Z M 80.882812 5.589844 " clip-rule="nonzero"/></clipPath><clipPath id="27b3f48cda"><path d="M -51.617188 235.832031 L 109.429688 -44.007812 L 426.582031 138.511719 L 265.535156 418.351562 Z M -51.617188 235.832031 " clip-rule="nonzero"/></clipPath><clipPath id="6877ac310b"><path d="M -51.617188 235.832031 L 109.15625 -43.53125 L 426.667969 139.195312 L 265.894531 418.558594 Z M -51.617188 235.832031 " clip-rule="nonzero"/></clipPath><clipPath id="63754cfb32"><path d="M -51.617188 235.832031 L 109.152344 -43.523438 L 426.613281 139.171875 L 265.847656 418.53125 Z M -51.617188 235.832031 " clip-rule="nonzero"/></clipPath><clipPath id="5ea5582f47"><path d="M 111 104 L 230 104 L 230 276 L 111 276 Z M 111 104 " clip-rule="nonzero"/></clipPath><clipPath id="427a82709a"><path d="M 184.679688 68.644531 L 229.132812 93.597656 L 127.09375 275.367188 L 82.640625 250.414062 Z M 184.679688 68.644531 " clip-rule="nonzero"/></clipPath><clipPath id="e76e245545"><path d="M 54.488281 -4.4375 L 311.339844 139.746094 L 104.492188 508.226562 L -152.359375 364.042969 Z M 54.488281 -4.4375 " clip-rule="nonzero"/></clipPath><clipPath id="6404a123da"><path d="M 129.289062 206.335938 C 128.390625 209.855469 125.074219 213.820312 121.867188 217.65625 C 116.949219 223.535156 111.867188 229.613281 111.96875 237.203125 C 112.066406 244.910156 117.597656 251.175781 122.472656 256.699219 C 125.742188 260.398438 129.117188 264.226562 130.074219 267.613281 C 131.0625 271.128906 130.691406 276.59375 130.332031 281.882812 C 129.839844 289.113281 129.351562 296.550781 131.675781 302.625 L 117.054688 328.671875 C 115.667969 331.144531 116.546875 334.269531 119.015625 335.65625 C 121.484375 337.039062 124.613281 336.164062 125.996094 333.691406 L 140.613281 307.660156 C 147.019531 306.484375 153.113281 302.1875 159.035156 297.996094 C 163.359375 294.933594 167.832031 291.765625 171.347656 290.777344 C 174.734375 289.824219 179.761719 290.71875 184.621094 291.574219 C 191.875 292.863281 200.101562 294.316406 206.730469 290.390625 C 213.265625 286.519531 215.804688 279.011719 218.257812 271.753906 C 219.859375 267.019531 221.515625 262.125 224.050781 259.523438 C 226.410156 257.101562 231.117188 255.398438 235.667969 253.746094 C 242.671875 251.207031 250.609375 248.328125 254.46875 241.453125 C 258.328125 234.578125 256.652344 226.304688 255.171875 219 C 254.210938 214.253906 253.214844 209.351562 254.054688 206.078125 C 254.953125 202.558594 258.269531 198.59375 261.480469 194.761719 C 266.398438 188.882812 271.484375 182.808594 271.386719 175.21875 C 271.289062 167.511719 265.761719 161.25 260.886719 155.726562 C 257.621094 152.023438 254.242188 148.195312 253.292969 144.808594 C 252.304688 141.292969 252.679688 135.824219 253.039062 130.535156 C 253.613281 122.132812 254.210938 113.445312 250.355469 106.949219 C 249.421875 105.371094 247.714844 104.417969 245.882812 104.4375 C 238.324219 104.527344 231.21875 109.554688 224.339844 114.417969 C 220.011719 117.480469 215.539062 120.648438 212.019531 121.632812 C 208.632812 122.585938 203.605469 121.691406 198.746094 120.832031 C 191.488281 119.542969 183.261719 118.085938 176.628906 122.011719 C 170.097656 125.878906 167.554688 133.386719 165.097656 140.648438 C 163.492188 145.378906 161.835938 150.277344 159.300781 152.878906 C 156.941406 155.300781 152.230469 157.003906 147.679688 158.65625 C 140.675781 161.199219 132.738281 164.074219 128.878906 170.953125 C 125.019531 177.832031 126.695312 186.105469 128.171875 193.40625 C 129.132812 198.152344 130.128906 203.0625 129.289062 206.335938 Z M 245.523438 236.433594 C 243.53125 239.988281 237.757812 242.082031 232.171875 244.105469 C 226.535156 246.152344 220.707031 248.265625 216.707031 252.367188 C 212.546875 256.632812 210.515625 262.648438 208.546875 268.464844 C 206.6875 273.957031 204.765625 279.632812 201.503906 281.566406 C 198.144531 283.554688 192.179688 282.5 186.410156 281.480469 C 180.414062 280.417969 174.214844 279.320312 168.574219 280.90625 C 163.351562 282.371094 158.144531 286.058594 153.109375 289.625 C 151.8125 290.542969 150.511719 291.449219 149.21875 292.328125 L 203.6875 195.296875 L 259.953125 179.492188 C 258.539062 182.273438 256.0625 185.257812 253.617188 188.179688 C 249.671875 192.890625 245.597656 197.761719 244.117188 203.535156 C 242.699219 209.085938 243.933594 215.164062 245.121094 221.039062 C 246.300781 226.859375 247.519531 232.878906 245.523438 236.433594 Z M 181.851562 130.835938 C 185.214844 128.847656 191.179688 129.90625 196.953125 130.929688 C 202.945312 131.988281 209.148438 133.089844 214.785156 131.507812 C 220.011719 130.042969 225.222656 126.359375 230.265625 122.792969 C 234.535156 119.769531 238.917969 116.671875 242.691406 115.351562 C 243.53125 119.257812 243.164062 124.617188 242.808594 129.832031 C 242.386719 135.992188 241.953125 142.363281 243.417969 147.582031 C 245.003906 153.226562 249.167969 157.945312 253.199219 162.511719 C 255.164062 164.738281 257.15625 167.003906 258.65625 169.203125 L 210.785156 182.652344 L 228.15625 151.710938 C 229.542969 149.238281 228.664062 146.113281 226.195312 144.726562 C 223.726562 143.34375 220.597656 144.21875 219.210938 146.6875 L 176.449219 222.867188 L 160.09375 164.640625 C 162.53125 163.402344 164.789062 161.941406 166.644531 160.039062 C 170.804688 155.769531 172.839844 149.753906 174.8125 143.933594 C 176.671875 138.445312 178.59375 132.769531 181.851562 130.835938 Z M 150.535156 168.53125 L 169.351562 235.511719 L 140.285156 287.289062 C 140.363281 285.734375 140.457031 284.15625 140.5625 282.578125 C 140.980469 276.421875 141.414062 270.054688 139.945312 264.832031 C 138.355469 259.191406 134.191406 254.472656 130.164062 249.910156 C 126.28125 245.515625 122.273438 240.976562 122.21875 237.066406 C 122.171875 233.28125 126.015625 228.679688 129.734375 224.234375 C 133.675781 219.523438 137.75 214.652344 139.226562 208.878906 C 140.648438 203.328125 139.414062 197.25 138.222656 191.371094 C 137.042969 185.546875 135.824219 179.527344 137.820312 175.972656 C 139.738281 172.554688 145.15625 170.488281 150.535156 168.53125 Z M 150.535156 168.53125 " clip-rule="nonzero"/></clipPath><clipPath id="7203fc5143"><path d="M 82 269 L 178 269 L 178 276 L 82 276 Z M 82 269 " clip-rule="nonzero"/></clipPath><clipPath id="ca8923cf0c"><path d="M 184.679688 68.644531 L 229.132812 93.597656 L 127.09375 275.367188 L 82.640625 250.414062 Z M 184.679688 68.644531 " clip-rule="nonzero"/></clipPath><clipPath id="d83b69dcaa"><path d="M 54.488281 -4.4375 L 311.339844 139.746094 L 104.492188 508.226562 L -152.359375 364.042969 Z M 54.488281 -4.4375 " clip-rule="nonzero"/></clipPath><clipPath id="b2b93fe96e"><path d="M 157.664062 356.871094 L 160.21875 353.851562 C 161.226562 352.660156 161.636719 351.070312 161.328125 349.539062 C 161.023438 348.003906 160.054688 346.710938 158.644531 345.980469 L 155.582031 344.40625 C 149.191406 341.125 141.746094 340.976562 135.253906 343.851562 C 124.148438 341.304688 112.613281 343.128906 102.859375 348.957031 C 102.484375 348.734375 102.089844 348.542969 101.652344 348.421875 L 80.210938 342.433594 C 65.769531 338.398438 52.199219 332.011719 39.886719 323.433594 L 27.277344 314.65625 L 74.230469 307.035156 C 92.28125 304.542969 107.480469 293.105469 114.878906 276.453125 C 115.589844 274.863281 115.441406 273.023438 114.492188 271.570312 C 113.539062 270.113281 111.917969 269.234375 110.175781 269.242188 L -9.914062 269.6875 C -15.285156 269.707031 -20.488281 270.839844 -25.382812 273.058594 L -71.839844 294.121094 L -112.3125 300.335938 C -113.496094 300.515625 -114.578125 301.105469 -115.371094 302 C -138.871094 328.492188 -137.710938 357.292969 -112.011719 385.285156 C -111.644531 385.683594 -111.214844 386.023438 -110.746094 386.289062 C -110.175781 386.609375 -109.546875 386.816406 -108.886719 386.902344 L -82.171875 390.324219 C -77.253906 390.953125 -72.566406 392.539062 -68.3125 395.042969 C -52.101562 404.484375 -34.84375 412.421875 -17.070312 418.523438 L 13.011719 428.851562 C 13.445312 429 13.902344 429.09375 14.363281 429.121094 L 52.828125 431.464844 C 53.628906 431.515625 54.425781 431.375 55.160156 431.058594 L 106.214844 409.15625 C 107.699219 408.523438 108.792969 407.226562 109.175781 405.660156 C 109.558594 404.09375 109.183594 402.441406 108.160156 401.195312 C 107.867188 400.839844 107.527344 400.554688 107.222656 400.21875 L 131.621094 385.929688 L 173.121094 381.875 C 174.511719 381.742188 175.78125 381.046875 176.644531 379.957031 C 177.511719 378.863281 177.894531 377.46875 177.707031 376.089844 C 176.332031 365.863281 167.914062 357.820312 157.664062 356.871094 Z M 147.984375 352.4375 L 127.84375 376.257812 L 98.261719 393.578125 C 97.191406 393.085938 96.082031 392.695312 94.960938 392.339844 L 102.9375 386.175781 C 103.046875 386.089844 103.15625 386 103.257812 385.90625 L 138.738281 353.542969 C 141.621094 352.070312 144.894531 351.675781 147.984375 352.4375 Z M 52.238281 421.15625 L 15.683594 418.925781 L -13.742188 408.824219 C -30.875 402.941406 -47.484375 395.335938 -63.144531 386.183594 C -68.570312 383.0625 -74.578125 380.957031 -80.871094 380.152344 L -105.699219 376.972656 C -126.273438 353.773438 -127.320312 331.894531 -108.898438 310.183594 L -69.589844 304.152344 C -69.125 304.082031 -68.675781 303.949219 -68.246094 303.753906 L -21.144531 282.398438 C -17.582031 280.78125 -13.789062 279.957031 -9.875 279.941406 L 101.40625 279.53125 C 94.765625 288.953125 84.527344 295.261719 72.707031 296.894531 L 13.128906 306.566406 C 11.066406 306.898438 9.414062 308.453125 8.949219 310.488281 C 8.488281 312.527344 9.304688 314.640625 11.019531 315.835938 L 34.027344 331.851562 C 47.28125 341.078125 61.894531 347.964844 77.453125 352.3125 L 91.910156 356.351562 L 73.359375 369.214844 L 53.035156 370.117188 C 50.207031 370.246094 48.015625 372.640625 48.140625 375.46875 C 48.265625 378.300781 50.664062 380.488281 53.496094 380.363281 L 75.296875 379.394531 C 76.261719 379.347656 77.191406 379.035156 77.988281 378.484375 L 106.132812 358.964844 C 111.53125 355.222656 117.785156 353.175781 124.175781 352.945312 L 96.503906 378.1875 L 78.242188 392.300781 C 77.859375 392.421875 77.46875 392.480469 77.089844 392.617188 L 61.828125 398.105469 C 20.414062 394.378906 19.226562 394.445312 18.773438 394.46875 C 15.949219 394.625 13.632812 397.046875 13.785156 399.875 C 13.941406 402.699219 16.210938 404.878906 19.039062 404.714844 C 21.035156 404.773438 46.472656 407.019531 62.035156 408.421875 C 62.78125 408.488281 63.527344 408.390625 64.230469 408.136719 L 80.5625 402.265625 C 85.179688 400.605469 90.171875 400.976562 94.402344 403.066406 Z M 142.722656 374.539062 L 149.554688 366.460938 C 149.574219 366.464844 149.59375 366.472656 149.617188 366.472656 L 156.605469 367.054688 C 160.375 367.371094 163.617188 369.355469 165.601562 372.304688 Z M 142.722656 374.539062 " clip-rule="nonzero"/></clipPath><clipPath id="458bc4162e"><path d="M 111 104 L 272 104 L 272 337 L 111 337 Z M 111 104 " clip-rule="nonzero"/></clipPath><clipPath id="886a62f354"><path d="M 223.625 90.511719 L 311.546875 139.867188 L 188.992188 358.1875 L 101.070312 308.832031 Z M 223.625 90.511719 " clip-rule="nonzero"/></clipPath><clipPath id="c07a26bdd4"><path d="M 54.488281 -4.433594 L 311.335938 139.75 L 104.488281 508.230469 L -152.359375 364.046875 Z M 54.488281 -4.433594 " clip-rule="nonzero"/></clipPath><clipPath id="326b1deb48"><path d="M 129.289062 206.339844 C 128.390625 209.859375 125.074219 213.824219 121.867188 217.660156 C 116.949219 223.539062 111.867188 229.617188 111.964844 237.207031 C 112.066406 244.914062 117.597656 251.179688 122.472656 256.703125 C 125.738281 260.402344 129.117188 264.230469 130.070312 267.617188 C 131.0625 271.132812 130.691406 276.597656 130.328125 281.886719 C 129.835938 289.117188 129.351562 296.554688 131.675781 302.628906 L 117.054688 328.675781 C 115.667969 331.148438 116.546875 334.273438 119.015625 335.660156 C 121.484375 337.042969 124.609375 336.167969 125.996094 333.695312 L 140.609375 307.664062 C 147.015625 306.488281 153.113281 302.191406 159.03125 298 C 163.359375 294.9375 167.832031 291.769531 171.347656 290.78125 C 174.734375 289.828125 179.761719 290.722656 184.621094 291.578125 C 191.875 292.867188 200.101562 294.320312 206.730469 290.394531 C 213.265625 286.523438 215.800781 279.015625 218.257812 271.757812 C 219.859375 267.023438 221.515625 262.128906 224.050781 259.527344 C 226.410156 257.109375 231.113281 255.402344 235.667969 253.75 C 242.671875 251.210938 250.605469 248.332031 254.464844 241.457031 C 258.328125 234.582031 256.648438 226.308594 255.171875 219.003906 C 254.210938 214.257812 253.214844 209.355469 254.054688 206.082031 C 254.953125 202.5625 258.269531 198.597656 261.476562 194.765625 C 266.394531 188.886719 271.484375 182.8125 271.386719 175.222656 C 271.289062 167.515625 265.761719 161.253906 260.886719 155.730469 C 257.621094 152.027344 254.242188 148.199219 253.292969 144.8125 C 252.300781 141.296875 252.675781 135.828125 253.039062 130.539062 C 253.613281 122.136719 254.207031 113.449219 250.351562 106.953125 C 249.421875 105.375 247.714844 104.421875 245.882812 104.441406 C 238.324219 104.53125 231.214844 109.5625 224.339844 114.421875 C 220.011719 117.484375 215.539062 120.652344 212.019531 121.636719 C 208.632812 122.589844 203.605469 121.695312 198.742188 120.835938 C 191.488281 119.550781 183.257812 118.089844 176.628906 122.015625 C 170.097656 125.882812 167.554688 133.390625 165.097656 140.652344 C 163.492188 145.382812 161.835938 150.28125 159.300781 152.882812 C 156.941406 155.304688 152.230469 157.007812 147.679688 158.660156 C 140.675781 161.203125 132.738281 164.078125 128.878906 170.957031 C 125.015625 177.835938 126.691406 186.109375 128.171875 193.410156 C 129.132812 198.15625 130.128906 203.066406 129.289062 206.339844 Z M 245.523438 236.4375 C 243.527344 239.992188 237.753906 242.085938 232.171875 244.109375 C 226.535156 246.15625 220.703125 248.269531 216.707031 252.371094 C 212.546875 256.636719 210.511719 262.652344 208.546875 268.46875 C 206.6875 273.960938 204.765625 279.636719 201.5 281.570312 C 198.144531 283.558594 192.179688 282.503906 186.410156 281.484375 C 180.414062 280.421875 174.214844 279.324219 168.574219 280.910156 C 163.351562 282.375 158.140625 286.0625 153.105469 289.632812 C 151.8125 290.546875 150.511719 291.453125 149.21875 292.332031 L 203.683594 195.300781 L 259.949219 179.496094 C 258.539062 182.277344 256.0625 185.261719 253.613281 188.183594 C 249.671875 192.894531 245.59375 197.765625 244.117188 203.539062 C 242.699219 209.089844 243.929688 215.167969 245.121094 221.042969 C 246.300781 226.863281 247.519531 232.882812 245.523438 236.4375 Z M 181.851562 130.839844 C 185.210938 128.851562 191.179688 129.910156 196.953125 130.933594 C 202.945312 131.992188 209.144531 133.09375 214.785156 131.511719 C 220.011719 130.046875 225.222656 126.363281 230.261719 122.796875 C 234.53125 119.773438 238.917969 116.675781 242.691406 115.355469 C 243.53125 119.261719 243.164062 124.621094 242.808594 129.835938 C 242.386719 135.996094 241.949219 142.367188 243.417969 147.585938 C 245.003906 153.230469 249.167969 157.949219 253.195312 162.515625 C 255.164062 164.742188 257.15625 167.007812 258.65625 169.207031 L 210.785156 182.65625 L 228.152344 151.714844 C 229.539062 149.242188 228.660156 146.117188 226.191406 144.730469 C 223.722656 143.347656 220.597656 144.222656 219.210938 146.691406 L 176.449219 222.871094 L 160.09375 164.644531 C 162.53125 163.40625 164.789062 161.945312 166.640625 160.042969 C 170.804688 155.773438 172.839844 149.757812 174.808594 143.9375 C 176.667969 138.449219 178.59375 132.773438 181.851562 130.839844 Z M 150.535156 168.535156 L 169.351562 235.515625 L 140.285156 287.292969 C 140.359375 285.738281 140.457031 284.160156 140.5625 282.582031 C 140.980469 276.425781 141.414062 270.058594 139.941406 264.835938 C 138.355469 259.195312 134.1875 254.476562 130.160156 249.914062 C 126.28125 245.519531 122.273438 240.980469 122.21875 237.070312 C 122.171875 233.285156 126.015625 228.683594 129.730469 224.238281 C 133.675781 219.527344 137.75 214.65625 139.226562 208.882812 C 140.644531 203.332031 139.414062 197.253906 138.222656 191.375 C 137.042969 185.550781 135.824219 179.53125 137.820312 175.976562 C 139.738281 172.558594 145.152344 170.492188 150.535156 168.535156 Z M 150.535156 168.535156 " clip-rule="nonzero"/></clipPath><clipPath id="6c412f7bf8"><path d="M 101 269 L 178 269 L 178 359 L 101 359 Z M 101 269 " clip-rule="nonzero"/></clipPath><clipPath id="8e70fe7a72"><path d="M 223.625 90.511719 L 311.546875 139.867188 L 188.992188 358.1875 L 101.070312 308.832031 Z M 223.625 90.511719 " clip-rule="nonzero"/></clipPath><clipPath id="a9deb0cf20"><path d="M 54.488281 -4.433594 L 311.335938 139.75 L 104.488281 508.230469 L -152.359375 364.046875 Z M 54.488281 -4.433594 " clip-rule="nonzero"/></clipPath><clipPath id="7369519fed"><path d="M 157.664062 356.875 L 160.214844 353.855469 C 161.226562 352.664062 161.636719 351.074219 161.328125 349.542969 C 161.023438 348.007812 160.050781 346.714844 158.644531 345.984375 L 155.578125 344.410156 C 149.191406 341.128906 141.742188 340.980469 135.25 343.855469 C 124.148438 341.308594 112.613281 343.132812 102.859375 348.960938 C 102.484375 348.738281 102.089844 348.546875 101.648438 348.425781 L 80.210938 342.4375 C 65.769531 338.402344 52.199219 332.015625 39.886719 323.4375 L 27.277344 314.660156 L 74.226562 307.039062 C 92.28125 304.546875 107.480469 293.109375 114.878906 276.457031 C 115.589844 274.867188 115.441406 273.027344 114.488281 271.574219 C 113.539062 270.117188 111.917969 269.238281 110.175781 269.246094 L -9.914062 269.691406 C -15.285156 269.710938 -20.488281 270.84375 -25.382812 273.0625 L -71.84375 294.125 L -112.3125 300.339844 C -113.496094 300.519531 -114.578125 301.109375 -115.371094 302.003906 C -138.875 328.496094 -137.710938 357.296875 -112.011719 385.289062 C -111.644531 385.6875 -111.214844 386.027344 -110.746094 386.292969 C -110.175781 386.613281 -109.546875 386.820312 -108.886719 386.90625 L -82.171875 390.328125 C -77.257812 390.957031 -72.566406 392.542969 -68.316406 395.046875 C -52.101562 404.488281 -34.847656 412.425781 -17.074219 418.527344 L 13.007812 428.855469 C 13.445312 429.003906 13.898438 429.097656 14.363281 429.125 L 52.828125 431.46875 C 53.628906 431.519531 54.425781 431.378906 55.160156 431.0625 L 106.214844 409.160156 C 107.695312 408.527344 108.792969 407.230469 109.171875 405.664062 C 109.558594 404.097656 109.179688 402.445312 108.15625 401.199219 C 107.867188 400.84375 107.523438 400.558594 107.21875 400.222656 L 131.621094 385.933594 L 173.121094 381.878906 C 174.507812 381.746094 175.78125 381.050781 176.644531 379.960938 C 177.507812 378.867188 177.890625 377.472656 177.707031 376.09375 C 176.332031 365.867188 167.914062 357.824219 157.664062 356.875 Z M 147.980469 352.441406 L 127.839844 376.261719 L 98.261719 393.582031 C 97.191406 393.089844 96.082031 392.699219 94.960938 392.34375 L 102.9375 386.179688 C 103.046875 386.09375 103.15625 386.003906 103.257812 385.910156 L 138.734375 353.546875 C 141.621094 352.074219 144.894531 351.679688 147.980469 352.441406 Z M 52.238281 421.160156 L 15.683594 418.929688 L -13.742188 408.828125 C -30.875 402.945312 -47.484375 395.339844 -63.144531 386.1875 C -68.570312 383.066406 -74.578125 380.960938 -80.871094 380.15625 L -105.703125 376.976562 C -126.277344 353.777344 -127.320312 331.898438 -108.898438 310.1875 L -69.589844 304.15625 C -69.125 304.085938 -68.675781 303.953125 -68.25 303.757812 L -21.148438 282.402344 C -17.582031 280.785156 -13.789062 279.960938 -9.875 279.945312 L 101.40625 279.535156 C 94.765625 288.957031 84.523438 295.265625 72.703125 296.898438 L 13.128906 306.570312 C 11.066406 306.902344 9.414062 308.457031 8.949219 310.492188 C 8.488281 312.53125 9.304688 314.644531 11.019531 315.839844 L 34.027344 331.855469 C 47.28125 341.082031 61.894531 347.96875 77.453125 352.316406 L 91.90625 356.355469 L 73.359375 369.21875 L 53.035156 370.121094 C 50.207031 370.25 48.015625 372.644531 48.140625 375.472656 C 48.265625 378.304688 50.664062 380.492188 53.492188 380.367188 L 75.292969 379.398438 C 76.261719 379.351562 77.191406 379.039062 77.988281 378.488281 L 106.132812 358.96875 C 111.527344 355.226562 117.785156 353.179688 124.175781 352.949219 L 96.503906 378.191406 L 78.242188 392.304688 C 77.859375 392.425781 77.46875 392.484375 77.089844 392.621094 L 61.828125 398.109375 C 20.410156 394.382812 19.222656 394.449219 18.773438 394.472656 C 15.949219 394.628906 13.628906 397.050781 13.785156 399.878906 C 13.941406 402.703125 16.210938 404.882812 19.039062 404.71875 C 21.035156 404.777344 46.46875 407.023438 62.035156 408.425781 C 62.777344 408.492188 63.527344 408.394531 64.230469 408.144531 L 80.5625 402.269531 C 85.175781 400.609375 90.171875 400.980469 94.398438 403.070312 Z M 142.722656 374.542969 L 149.554688 366.464844 C 149.574219 366.46875 149.59375 366.476562 149.617188 366.476562 L 156.605469 367.058594 C 160.371094 367.375 163.617188 369.359375 165.597656 372.308594 Z M 142.722656 374.542969 " clip-rule="nonzero"/></clipPath></defs><rect x="-37.5" width="450" fill="#ffffff" y="-37.499999" height="449.999989" fill-opacity="1"/><rect x="-37.5" width="450" fill="#ffffff" y="-37.499999" height="449.999989" fill-opacity="1"/><g clip-path="url(#bb354e5e6e)"><g clip-path="url(#caef497b7d)"><g clip-path="url(#8d0019aee2)"><g clip-path="url(#eadbdcef62)"><g clip-path="url(#ae265b94c2)"><path fill="#ff2b20" d="M 40.324219 102.800781 C 39.835938 103.648438 39.566406 104.625 39.570312 105.632812 L 39.796875 269.78125 C 39.800781 271.796875 40.886719 273.675781 42.636719 274.679688 L 184.90625 356.554688 C 186.65625 357.5625 188.828125 357.558594 190.570312 356.546875 L 332.609375 274.277344 C 334.355469 273.265625 335.4375 271.382812 335.4375 269.367188 L 335.207031 105.222656 C 335.207031 103.207031 334.117188 101.324219 332.367188 100.316406 L 190.101562 18.445312 C 188.351562 17.4375 186.179688 17.441406 184.433594 18.453125 L 42.394531 100.722656 C 41.523438 101.230469 40.8125 101.953125 40.324219 102.800781 Z M 346.234375 278.847656 C 344.59375 281.699219 342.226562 284.125 339.296875 285.820312 L 197.253906 368.089844 C 191.398438 371.480469 184.121094 371.492188 178.253906 368.117188 L 35.984375 286.242188 C 30.121094 282.867188 26.46875 276.566406 26.460938 269.796875 L 26.234375 105.652344 C 26.222656 98.886719 29.851562 92.574219 35.710938 89.183594 L 177.75 6.910156 C 183.605469 3.519531 190.886719 3.507812 196.753906 6.882812 L 339.019531 88.757812 C 344.886719 92.132812 348.535156 98.433594 348.546875 105.203125 L 348.773438 269.347656 C 348.78125 272.734375 347.871094 276 346.234375 278.847656 " fill-opacity="1" fill-rule="nonzero"/></g></g></g></g></g><g clip-path="url(#daa93d6bd4)"><g clip-path="url(#5974f6ad67)"><g clip-path="url(#194eaae5d9)"><g clip-path="url(#4aa8214bdf)"><g clip-path="url(#e96fef2f98)"><path fill="#ff2b20" d="M 40.320312 102.804688 C 39.832031 103.652344 39.5625 104.628906 39.566406 105.636719 L 39.792969 269.78125 C 39.796875 271.800781 40.882812 273.675781 42.632812 274.683594 L 184.902344 356.558594 C 186.652344 357.566406 188.824219 357.5625 190.566406 356.550781 L 332.605469 274.28125 C 334.351562 273.269531 335.433594 271.386719 335.433594 269.371094 L 335.203125 105.222656 C 335.203125 103.207031 334.113281 101.328125 332.363281 100.320312 L 190.097656 18.445312 C 188.347656 17.4375 186.175781 17.445312 184.429688 18.457031 L 42.390625 100.726562 C 41.519531 101.230469 40.808594 101.953125 40.320312 102.804688 Z M 346.230469 278.851562 C 344.589844 281.699219 342.222656 284.125 339.292969 285.820312 L 197.25 368.089844 C 191.394531 371.484375 184.117188 371.496094 178.25 368.117188 L 35.980469 286.242188 C 30.117188 282.867188 26.464844 276.566406 26.457031 269.800781 L 26.230469 105.65625 C 26.21875 98.886719 29.851562 92.574219 35.707031 89.183594 L 177.746094 6.914062 C 183.601562 3.523438 190.886719 3.511719 196.75 6.886719 L 339.019531 88.761719 C 344.886719 92.136719 348.53125 98.4375 348.542969 105.207031 L 348.769531 269.351562 C 348.777344 272.734375 347.867188 276.003906 346.230469 278.851562 " fill-opacity="1" fill-rule="nonzero"/></g></g></g></g></g><g clip-path="url(#3c3cb673e4)"><g clip-path="url(#5edc37fd16)"><g clip-path="url(#27b3f48cda)"><g clip-path="url(#6877ac310b)"><g clip-path="url(#63754cfb32)"><path fill="#ff2b20" d="M 40.320312 102.804688 C 39.832031 103.652344 39.5625 104.628906 39.566406 105.636719 L 39.792969 269.78125 C 39.796875 271.800781 40.882812 273.679688 42.632812 274.683594 L 184.902344 356.558594 C 186.652344 357.566406 188.824219 357.5625 190.566406 356.550781 L 332.605469 274.28125 C 334.351562 273.269531 335.433594 271.386719 335.433594 269.371094 L 335.203125 105.226562 C 335.203125 103.207031 334.113281 101.328125 332.363281 100.320312 L 190.097656 18.445312 C 188.347656 17.441406 186.175781 17.445312 184.429688 18.457031 L 42.390625 100.726562 C 41.519531 101.234375 40.808594 101.953125 40.320312 102.804688 Z M 346.230469 278.851562 C 344.589844 281.699219 342.222656 284.125 339.292969 285.824219 L 197.25 368.09375 C 191.394531 371.484375 184.117188 371.496094 178.25 368.117188 L 35.980469 286.246094 C 30.117188 282.871094 26.464844 276.570312 26.457031 269.800781 L 26.230469 105.65625 C 26.21875 98.886719 29.847656 92.578125 35.707031 89.1875 L 177.746094 6.914062 C 183.601562 3.523438 190.882812 3.511719 196.75 6.886719 L 339.015625 88.761719 C 344.882812 92.136719 348.53125 98.4375 348.542969 105.207031 L 348.769531 269.351562 C 348.777344 272.734375 347.867188 276.003906 346.230469 278.851562 " fill-opacity="1" fill-rule="nonzero"/></g></g></g></g></g><g clip-path="url(#5ea5582f47)"><g clip-path="url(#427a82709a)"><g clip-path="url(#e76e245545)"><g clip-path="url(#6404a123da)"><path fill="#ff2b20" d="M 139.964844 54.363281 L 38.898438 234.40625 L 201.035156 325.421875 L 302.101562 145.378906 Z M 139.964844 54.363281 " fill-opacity="1" fill-rule="nonzero"/></g></g></g></g><g clip-path="url(#7203fc5143)"><g clip-path="url(#ca8923cf0c)"><g clip-path="url(#d83b69dcaa)"><g clip-path="url(#b2b93fe96e)"><path fill="#ff2b20" d="M 105.464844 228.578125 L 80.023438 273.898438 L 155.070312 316.027344 L 180.511719 270.703125 Z M 105.464844 228.578125 " fill-opacity="1" fill-rule="nonzero"/></g></g></g></g><g clip-path="url(#458bc4162e)"><g clip-path="url(#886a62f354)"><g clip-path="url(#c07a26bdd4)"><g clip-path="url(#326b1deb48)"><path fill="#ff2b20" d="M 150.113281 36.289062 L 12.570312 281.304688 L 233.238281 405.175781 L 370.777344 160.160156 Z M 150.113281 36.289062 " fill-opacity="1" fill-rule="nonzero"/></g></g></g></g><g clip-path="url(#6c412f7bf8)"><g clip-path="url(#8e70fe7a72)"><g clip-path="url(#a9deb0cf20)"><g clip-path="url(#7369519fed)"><path fill="#ff2b20" d="M 119.476562 236.445312 L 63.101562 336.875 L 159.484375 390.980469 L 215.859375 290.550781 Z M 119.476562 236.445312 " fill-opacity="1" fill-rule="nonzero"/></g></g></g></g></svg>